<?xml version="1.0" standalone="no"?>
<!DOCTYPE svg PUBLIC "-//W3C//DTD SVG 20010904//EN"
 "http://www.w3.org/TR/2001/REC-SVG-20010904/DTD/svg10.dtd">
<svg version="1.0" xmlns="http://www.w3.org/2000/svg"
 width="936.000000pt" height="936.000000pt" viewBox="0 0 936.000000 936.000000"
 preserveAspectRatio="xMidYMid meet">
<metadata>
Created by potrace 1.14, written by Peter Selinger 2001-2017
</metadata>
<g transform="translate(0.000000,936.000000) scale(0.100000,-0.100000)"
fill="#000000" stroke="none">
<path d="M0 4680 l0 -4680 4680 0 4680 0 0 4680 0 4680 -4680 0 -4680 0 0
-4680z m4692 2646 c7 4 8 2 4 -5 -9 -14 2 -53 13 -46 5 2 21 -30 36 -73 16
-42 31 -79 35 -82 6 -5 41 -88 195 -470 34 -85 167 -411 294 -724 202 -498
229 -571 217 -585 -8 -9 -197 -225 -421 -481 -224 -256 -411 -465 -416 -465
-7 0 -572 640 -805 911 l-44 51 156 384 c86 211 182 449 214 529 33 80 93 228
135 330 41 102 101 248 132 325 31 77 60 142 63 145 4 3 18 33 31 68 13 34 27
62 31 62 4 0 4 7 1 17 -4 10 -2 14 5 9 13 -8 26 29 16 45 -4 7 -3 9 4 5 6 -3
13 2 16 11 7 20 69 55 74 42 2 -5 9 -6 14 -3z m2188 -638 c0 -5 5 -6 10 -3 6
3 10 2 10 -4 0 -5 28 -18 63 -28 l62 -18 4 -50 5 -50 6 55 c4 30 7 -528 8
-1241 l2 -1295 -387 -197 c-212 -109 -387 -196 -388 -195 -7 10 -675 1667
-675 1675 0 5 55 72 123 149 607 693 934 1060 1014 1139 88 87 97 93 119 83
13 -6 24 -15 24 -20z m-4225 -177 c68 -66 231 -240 296 -317 37 -42 669 -761
732 -831 23 -26 66 86 -490 -1283 -52 -129 -111 -275 -131 -325 -19 -49 -36
-91 -37 -93 -1 -1 -176 86 -388 195 l-387 197 2 1210 c1 666 5 1168 8 1116 6
-94 6 -94 8 -24 l2 72 48 19 c26 11 77 33 115 48 37 15 67 32 67 36 0 5 7 6
15 3 8 -4 15 -2 15 3 0 10 37 31 55 32 6 0 37 -26 70 -58z m-2065 -1716 c6 3
10 1 10 -5 0 -6 5 -8 10 -5 6 3 10 2 10 -4 0 -6 7 -7 17 -4 12 5 14 3 8 -7 -5
-9 -4 -11 3 -6 10 6 579 -278 1327 -661 l190 -98 3 -1152 c1 -634 -1 -1153 -5
-1153 -5 0 -58 87 -120 193 -118 203 -135 233 -508 867 -131 223 -268 457
-305 520 -37 63 -106 183 -155 265 -306 522 -405 691 -455 780 -31 55 -68 119
-83 141 -14 23 -23 45 -20 48 4 3 1 6 -6 6 -7 0 -9 5 -6 10 3 6 1 10 -5 10 -6
0 -8 5 -5 10 3 6 1 10 -6 10 -7 0 -9 3 -6 7 4 3 -1 12 -11 20 -9 8 -11 12 -5
8 9 -4 11 -1 7 9 -3 9 -11 13 -17 9 -6 -3 -7 -1 -3 5 4 6 0 25 -9 41 -14 28
-14 31 7 45 12 9 18 16 13 16 -6 0 -2 5 8 11 9 5 17 16 17 23 0 7 9 21 20 31
11 10 17 22 14 27 -4 5 8 2 25 -7 17 -9 36 -13 41 -10z m8197 19 c-6 -6 41
-76 56 -82 4 -2 5 -8 1 -13 -5 -8 9 -13 29 -10 4 1 -4 -21 -17 -48 -14 -27
-22 -51 -19 -55 4 -3 1 -6 -6 -6 -7 0 -9 -4 -6 -10 3 -5 1 -10 -5 -10 -6 0 -8
-4 -5 -10 3 -5 1 -10 -5 -10 -6 0 -9 -4 -6 -9 3 -5 -1 -12 -10 -15 -8 -3 -12
-10 -9 -16 3 -5 -9 -34 -28 -62 -19 -29 -49 -80 -67 -113 -18 -33 -63 -112
-100 -175 -94 -161 -322 -551 -448 -765 -58 -99 -133 -227 -167 -285 -34 -58
-132 -224 -217 -370 -86 -146 -240 -409 -344 -585 -103 -176 -206 -353 -228
-392 -23 -40 -44 -73 -48 -73 -5 0 -8 517 -8 1149 0 907 3 1151 13 1159 37 30
1498 762 1508 756 7 -4 9 -3 6 3 -8 12 20 26 34 17 5 -3 9 0 9 6 0 6 4 8 10 5
5 -3 22 1 37 9 29 16 51 21 40 10z m-3067 -49 c6 -19 15 -33 20 -30 4 3 18
-23 30 -58 13 -34 29 -72 37 -84 7 -13 10 -23 6 -23 -5 0 -3 -4 3 -8 6 -4 34
-65 62 -137 28 -71 90 -224 137 -340 152 -371 185 -459 178 -465 -5 -4 -142
-75 -305 -158 l-297 -152 -62 73 c-35 39 -233 267 -442 504 l-379 433 22 27
c12 16 37 41 56 56 19 16 32 32 29 36 -5 9 40 51 54 51 9 0 23 25 26 45 0 6 6
9 12 8 6 -2 40 29 74 67 34 38 66 67 71 63 6 -3 33 2 62 11 49 15 201 48 316
67 30 6 57 14 60 20 6 9 198 38 212 32 3 -2 12 -19 18 -38z m-1488 -40 c2 3
13 -5 24 -17 19 -23 19 -23 -1 -8 -12 8 5 -10 37 -40 57 -55 298 -326 298
-336 0 -3 -199 -232 -441 -509 l-442 -504 -286 147 c-157 81 -294 152 -304
158 -17 10 -15 20 38 150 32 76 80 195 107 264 27 69 54 126 58 128 5 2 6 10
3 18 -3 8 0 14 7 14 6 0 8 5 5 10 -3 6 -2 10 2 10 5 0 17 25 27 55 11 30 23
52 27 50 11 -7 22 32 13 46 -4 7 -3 9 4 5 6 -4 16 8 24 30 10 27 24 42 60 60
26 13 54 24 63 24 8 0 15 3 15 8 0 8 34 25 115 57 33 12 144 64 246 114 102
50 191 91 198 91 6 0 11 5 11 11 0 5 5 7 12 3 8 -5 9 -1 4 12 -4 12 8 5 32
-19 21 -20 41 -35 44 -32z m-1584 -981 c3 3 -1 6 -8 6 -7 0 -11 2 -8 5 9 10
58 -17 51 -28 -3 -6 -1 -7 5 -3 8 5 278 -120 299 -138 2 -2 -69 -184 -212
-536 -48 -118 -121 -298 -162 -400 -41 -102 -106 -261 -143 -355 -38 -93 -103
-253 -144 -355 l-75 -185 1 840 c1 462 4 813 8 780 6 -57 7 -58 8 -15 2 47 5
51 103 160 73 80 85 95 102 123 10 15 23 27 30 27 13 0 77 77 77 92 0 5 14 1
31 -7 17 -9 33 -14 37 -11z m3988 -74 c16 0 126 -59 135 -73 4 -5 12 -6 18 -3
6 4 11 2 11 -4 0 -6 5 -8 10 -5 6 3 10 2 10 -2 0 -10 103 -73 119 -73 6 0 29
-12 51 -26 35 -23 40 -32 42 -68 1 -38 2 -37 8 14 4 30 7 -333 8 -807 1 -475
0 -863 -2 -863 -2 0 -11 21 -21 48 -17 46 -83 210 -238 592 -241 592 -442
1092 -457 1136 l-18 51 72 33 c39 18 74 32 79 31 4 0 7 4 7 10 0 5 5 7 10 4 6
-3 10 -1 10 5 0 6 4 9 9 6 13 -8 42 4 35 15 -3 5 2 6 10 3 8 -3 23 -1 33 4 13
8 21 6 31 -9 7 -10 20 -19 28 -19z m-3324 -264 c-3 -5 2 -6 12 -3 10 4 15 3
11 -3 -6 -9 -2 -11 32 -14 6 -1 72 -32 147 -70 l135 -69 -27 -32 c-42 -50
-1213 -1386 -1249 -1425 -31 -34 -31 -31 32 125 35 88 100 250 145 360 45 110
105 256 132 325 27 69 54 130 59 136 5 6 6 14 2 17 -3 4 -1 7 5 7 6 0 17 18
23 40 7 21 15 37 20 35 4 -3 5 5 1 17 -3 13 -1 19 5 15 14 -9 37 48 27 64 -4
7 -3 10 4 5 6 -3 23 10 38 31 15 21 37 48 48 59 39 40 193 209 237 259 78 89
124 130 146 130 11 0 19 -4 15 -9z m3055 -399 c31 4 43 2 43 -7 0 -7 6 -10 14
-7 10 4 20 -9 32 -44 12 -34 21 -45 27 -36 6 8 7 4 4 -11 -3 -12 -1 -20 3 -17
5 3 18 -24 30 -59 12 -36 25 -66 29 -68 4 -2 30 -61 59 -133 28 -71 90 -224
137 -340 47 -115 110 -273 141 -350 30 -77 59 -148 64 -157 29 -52 43 -67
-710 797 -101 116 -172 201 -158 190 13 -11 3 0 -24 25 -26 25 -48 50 -48 56
0 6 -14 29 -31 50 l-30 39 28 8 c15 5 35 11 43 14 8 3 35 8 60 10 24 3 52 9
62 14 9 5 37 9 61 9 25 0 57 7 73 15 18 9 32 11 38 5 5 -5 29 -7 53 -3z"/>
</g>
</svg>
